<mxfile host="Electron" agent="Mozilla/5.0 (Windows NT 10.0; Win64; x64) AppleWebKit/537.36 (KHTML, like Gecko) draw.io/26.1.1 Chrome/132.0.6834.210 Electron/34.3.3 Safari/537.36" version="26.1.1">
  <diagram name="페이지-1" id="VSAeOotIDmW3yGKs_1Nk">
    <mxGraphModel dx="1974" dy="669" grid="1" gridSize="10" guides="1" tooltips="1" connect="1" arrows="1" fold="1" page="1" pageScale="1" pageWidth="827" pageHeight="1169" math="0" shadow="0">
      <root>
        <mxCell id="0" />
        <mxCell id="1" parent="0" />
        <mxCell id="gVc2iqGIA-hcth5kCHBf-1" value="Client PC&lt;div&gt;(Client)&lt;/div&gt;" style="rounded=0;whiteSpace=wrap;html=1;" vertex="1" parent="1">
          <mxGeometry x="30" y="90" width="120" height="60" as="geometry" />
        </mxCell>
        <mxCell id="gVc2iqGIA-hcth5kCHBf-2" value="" style="endArrow=none;html=1;rounded=0;exitX=0.5;exitY=1;exitDx=0;exitDy=0;" edge="1" parent="1" source="gVc2iqGIA-hcth5kCHBf-1">
          <mxGeometry width="50" height="50" relative="1" as="geometry">
            <mxPoint x="390" y="450" as="sourcePoint" />
            <mxPoint x="90" y="400" as="targetPoint" />
          </mxGeometry>
        </mxCell>
        <mxCell id="gVc2iqGIA-hcth5kCHBf-3" value="" style="endArrow=classic;html=1;rounded=0;" edge="1" parent="1">
          <mxGeometry width="50" height="50" relative="1" as="geometry">
            <mxPoint x="90" y="221" as="sourcePoint" />
            <mxPoint x="280" y="221" as="targetPoint" />
          </mxGeometry>
        </mxCell>
        <mxCell id="gVc2iqGIA-hcth5kCHBf-6" value="Server_SendChatMessage" style="edgeLabel;html=1;align=center;verticalAlign=middle;resizable=0;points=[];" vertex="1" connectable="0" parent="gVc2iqGIA-hcth5kCHBf-3">
          <mxGeometry x="0.0611" y="-2" relative="1" as="geometry">
            <mxPoint as="offset" />
          </mxGeometry>
        </mxCell>
        <mxCell id="gVc2iqGIA-hcth5kCHBf-4" value="Client PC&lt;div&gt;(Server)&lt;/div&gt;" style="rounded=0;whiteSpace=wrap;html=1;" vertex="1" parent="1">
          <mxGeometry x="220" y="90" width="120" height="60" as="geometry" />
        </mxCell>
        <mxCell id="gVc2iqGIA-hcth5kCHBf-5" value="" style="endArrow=none;html=1;rounded=0;exitX=0.5;exitY=1;exitDx=0;exitDy=0;" edge="1" parent="1" source="gVc2iqGIA-hcth5kCHBf-4">
          <mxGeometry width="50" height="50" relative="1" as="geometry">
            <mxPoint x="279.8" y="150" as="sourcePoint" />
            <mxPoint x="279.8" y="400" as="targetPoint" />
          </mxGeometry>
        </mxCell>
        <mxCell id="gVc2iqGIA-hcth5kCHBf-7" value="Game Mode&lt;div&gt;(Server)&lt;/div&gt;" style="rounded=0;whiteSpace=wrap;html=1;" vertex="1" parent="1">
          <mxGeometry x="413.5" y="90" width="120" height="60" as="geometry" />
        </mxCell>
        <mxCell id="gVc2iqGIA-hcth5kCHBf-8" value="" style="endArrow=none;html=1;rounded=0;exitX=0.518;exitY=1.005;exitDx=0;exitDy=0;exitPerimeter=0;" edge="1" parent="1">
          <mxGeometry width="50" height="50" relative="1" as="geometry">
            <mxPoint x="479.65999999999997" y="150.3" as="sourcePoint" />
            <mxPoint x="477.3" y="400" as="targetPoint" />
          </mxGeometry>
        </mxCell>
        <mxCell id="gVc2iqGIA-hcth5kCHBf-9" value="" style="endArrow=classic;html=1;rounded=0;" edge="1" parent="1">
          <mxGeometry width="50" height="50" relative="1" as="geometry">
            <mxPoint x="280" y="275" as="sourcePoint" />
            <mxPoint x="480" y="275" as="targetPoint" />
          </mxGeometry>
        </mxCell>
        <mxCell id="gVc2iqGIA-hcth5kCHBf-10" value="BroadcastChatMessage" style="edgeLabel;html=1;align=center;verticalAlign=middle;resizable=0;points=[];" vertex="1" connectable="0" parent="gVc2iqGIA-hcth5kCHBf-9">
          <mxGeometry x="-0.0701" relative="1" as="geometry">
            <mxPoint as="offset" />
          </mxGeometry>
        </mxCell>
        <mxCell id="gVc2iqGIA-hcth5kCHBf-12" value="" style="endArrow=classic;html=1;rounded=0;" edge="1" parent="1">
          <mxGeometry width="50" height="50" relative="1" as="geometry">
            <mxPoint x="480" y="330" as="sourcePoint" />
            <mxPoint x="90" y="330" as="targetPoint" />
          </mxGeometry>
        </mxCell>
        <mxCell id="gVc2iqGIA-hcth5kCHBf-13" value="Client_SendChatMessage" style="edgeLabel;html=1;align=center;verticalAlign=middle;resizable=0;points=[];" vertex="1" connectable="0" parent="gVc2iqGIA-hcth5kCHBf-12">
          <mxGeometry x="0.1193" y="2" relative="1" as="geometry">
            <mxPoint as="offset" />
          </mxGeometry>
        </mxCell>
        <mxCell id="gVc2iqGIA-hcth5kCHBf-16" value="UI&lt;div&gt;(Client)&lt;/div&gt;" style="rounded=0;whiteSpace=wrap;html=1;" vertex="1" parent="1">
          <mxGeometry x="-160" y="90" width="120" height="60" as="geometry" />
        </mxCell>
        <mxCell id="gVc2iqGIA-hcth5kCHBf-17" value="" style="endArrow=none;html=1;rounded=0;exitX=0.5;exitY=1;exitDx=0;exitDy=0;" edge="1" parent="1">
          <mxGeometry width="50" height="50" relative="1" as="geometry">
            <mxPoint x="-100.33000000000001" y="150" as="sourcePoint" />
            <mxPoint x="-100.33000000000001" y="400" as="targetPoint" />
          </mxGeometry>
        </mxCell>
        <mxCell id="gVc2iqGIA-hcth5kCHBf-19" value="" style="endArrow=classic;html=1;rounded=0;" edge="1" parent="1">
          <mxGeometry width="50" height="50" relative="1" as="geometry">
            <mxPoint x="-100" y="181" as="sourcePoint" />
            <mxPoint x="90" y="181" as="targetPoint" />
          </mxGeometry>
        </mxCell>
        <mxCell id="gVc2iqGIA-hcth5kCHBf-20" value="OnMessageCommited" style="edgeLabel;html=1;align=center;verticalAlign=middle;resizable=0;points=[];" vertex="1" connectable="0" parent="gVc2iqGIA-hcth5kCHBf-19">
          <mxGeometry x="-0.0358" y="-1" relative="1" as="geometry">
            <mxPoint as="offset" />
          </mxGeometry>
        </mxCell>
        <mxCell id="gVc2iqGIA-hcth5kCHBf-22" value="" style="endArrow=classic;html=1;rounded=0;" edge="1" parent="1">
          <mxGeometry width="50" height="50" relative="1" as="geometry">
            <mxPoint x="90" y="370" as="sourcePoint" />
            <mxPoint x="-100" y="370" as="targetPoint" />
          </mxGeometry>
        </mxCell>
        <mxCell id="gVc2iqGIA-hcth5kCHBf-23" value="UpdateChatBox" style="edgeLabel;html=1;align=center;verticalAlign=middle;resizable=0;points=[];" vertex="1" connectable="0" parent="gVc2iqGIA-hcth5kCHBf-22">
          <mxGeometry x="-0.0367" y="-1" relative="1" as="geometry">
            <mxPoint as="offset" />
          </mxGeometry>
        </mxCell>
      </root>
    </mxGraphModel>
  </diagram>
</mxfile>
